# Blender 4.3.2
# www.blender.org
mtllib Zombie.mtl
o Cube
v -0.478979 -1.000000 -0.623740
v -0.646741 1.000000 -1.000000
v 0.478979 -1.000000 -0.623740
v 0.594110 1.000000 -1.000000
v -0.646741 1.639725 -1.000000
v 0.594110 1.639725 -1.000000
v -0.594110 1.000000 0.000000
v 0.478979 -1.000000 0.000000
v 0.000000 -1.000000 -0.623740
v 0.000000 1.000000 -1.000000
v 0.000000 1.899755 -1.000000
v 0.594110 1.319863 -1.000000
v 0.000000 1.319831 -1.116168
v 0.000000 1.899755 -1.116168
v -0.646741 1.319863 -1.000000
v -0.594110 1.319863 0.000000
v 0.000000 1.319831 -1.000000
v 0.594110 1.639725 -1.116168
v -0.646741 1.639725 -1.116168
v 0.000000 -1.444138 0.000000
v -0.478979 -1.444138 -0.623740
v 0.478979 -1.444138 -0.623740
v 0.000000 -1.444138 -0.623740
v -0.412083 -2.918998 -0.580182
v 0.228154 -2.918998 -0.580182
v -0.412083 -2.918998 -0.043557
v 0.228154 -2.918998 -0.043557
v 0.000000 -2.918998 -0.580182
v 0.000000 -2.918998 -0.043557
v -0.380223 -3.017119 -0.559438
v 0.196295 -3.017119 -0.559438
v -0.380223 -3.017119 -0.064302
v 0.196295 -3.017119 -0.064302
v 0.000000 -3.017119 -0.559438
v 0.000000 -3.017119 -0.064302
v -0.391777 -3.194918 -0.566961
v 0.263269 -3.194918 -0.566961
v -0.391777 -3.194918 -0.056778
v 0.263269 -3.194918 -0.056778
v 0.000000 -3.194918 -0.566961
v 0.000000 -3.194918 -0.056778
v -0.187867 -4.915139 -0.434192
v 0.076614 -4.915139 -0.434192
v -0.187867 -4.915139 -0.189547
v 0.076614 -4.915139 -0.189547
v 0.000000 -4.915139 -0.434192
v 0.000000 -4.915139 -0.189547
v -0.187867 -5.286550 -0.434192
v 0.076614 -5.286550 -0.434192
v -0.187867 -5.286550 -0.189547
v 0.076614 -5.286550 -0.189547
v 0.000000 -5.286550 -0.434192
v 0.000000 -5.286550 -0.189547
v -0.590112 -5.146643 -0.593550
v -0.590112 -5.146643 -0.235838
v -0.590112 -5.286550 -0.593550
v -0.590112 -5.286550 -0.235838
v -0.772208 -5.146643 -0.593550
v -0.772208 -5.146643 -0.235838
v -0.772208 -5.286550 -0.593550
v -0.772208 -5.286550 -0.235838
v -0.914685 -5.146643 -0.593550
v -1.014610 -5.146643 -0.235838
v -0.914685 -5.286550 -0.593550
v -1.014610 -5.286550 -0.235838
v -0.542322 1.385826 -1.397213
v -0.485345 1.284033 -1.631470
v -0.542322 1.385826 -1.788049
v -0.592260 1.642882 -1.671692
v -0.490354 1.455299 -1.384126
v 0.065270 1.824093 -1.467356
v 0.437724 1.455299 -1.384126
v 0.000000 1.241769 -1.293858
v -1.600174 1.397099 -1.462525
v -1.559744 1.324868 -1.628751
v -1.600174 1.397099 -1.739857
v -1.635609 1.579502 -1.657292
v -1.734899 1.409554 -1.534690
v -1.712752 1.369987 -1.625746
v -1.734899 1.409554 -1.686608
v -1.754310 1.509472 -1.641380
v -2.004741 1.399269 -1.475100
v -1.967497 1.332730 -1.628227
v -2.004741 1.399269 -1.730578
v -2.037385 1.567299 -1.654519
v -2.986213 1.412998 -1.554641
v -2.969121 1.382462 -1.624915
v -2.986213 1.412998 -1.671886
v -3.001194 1.490111 -1.636981
v -3.079120 1.413027 -1.552888
v -3.061616 1.381754 -1.624857
v -3.079120 1.413027 -1.672961
v -3.094462 1.492000 -1.637214
v -3.451545 1.413027 -1.471900
v -3.434041 1.381754 -1.624857
v -3.451545 1.413027 -1.753949
v -3.466888 1.492000 -1.637214
v -3.627829 1.410075 -1.628031
v 0.000000 1.813964 -0.269696
v -0.309892 1.639725 0.000000
v 0.000000 1.962884 -0.269696
v 0.190704 3.265090 -0.153670
v 0.352374 3.112319 -0.283946
v 0.460399 2.883682 -0.370993
v 0.498332 2.613987 -0.401560
v 0.460399 2.344291 -0.370993
v 0.352374 2.115654 -0.283946
v 0.190704 1.962884 -0.190704
v -0.269696 1.962884 0.000000
v -0.190704 3.265090 -0.153670
v -0.352374 3.112319 -0.283946
v -0.460399 2.883682 -0.370993
v -0.498332 2.613987 -0.401560
v -0.460399 2.344291 -0.370993
v -0.352374 2.115654 -0.283946
v -0.190704 1.962884 -0.190704
v 0.000000 3.265090 -0.217323
v 0.000000 3.112319 -0.401560
v 0.000000 2.883682 -0.524663
v 0.000000 2.613987 -0.567892
v 0.000000 2.344291 -0.524663
v 0.000000 2.115654 -0.401560
v -0.478979 -1.000000 0.623740
v -0.646741 1.000000 1.000000
v 0.478979 -1.000000 0.623740
v 0.594110 1.000000 1.000000
v -0.646741 1.639725 1.000000
v 0.594110 1.639725 1.000000
v -0.478979 -1.000000 0.000000
v 0.710040 1.000000 0.000000
v -0.594110 1.639725 0.000000
v 0.710040 1.639725 0.000000
v 0.000000 -1.000000 0.623740
v 0.000000 1.000000 1.000000
v 0.000000 1.899755 1.000000
v 0.269696 1.962884 0.000000
v 0.594110 1.319863 1.000000
v 0.000000 1.319831 1.116168
v 0.000000 1.899755 1.116168
v -0.646741 1.319863 1.000000
v 0.710040 1.319863 0.000000
v 0.000000 1.319831 1.000000
v 0.594110 1.639725 1.116168
v 0.478979 -1.444138 0.623740
v 0.000000 -1.444138 0.623740
v -0.646741 1.639725 1.116168
v -0.478979 -1.444138 0.623740
v -0.478979 -1.444138 0.000000
v 0.478979 -1.444138 0.000000
v -0.412083 -2.918998 0.580182
v 0.228154 -2.918998 0.580182
v -0.412083 -2.918998 0.043557
v 0.228154 -2.918998 0.043557
v 0.000000 -2.918998 0.580182
v 0.000000 -2.918998 0.043557
v -0.380223 -3.017119 0.559438
v 0.196295 -3.017119 0.559438
v -0.380223 -3.017119 0.064302
v 0.196295 -3.017119 0.064302
v 0.000000 -3.017119 0.559438
v 0.000000 -3.017119 0.064302
v -0.391777 -3.194918 0.566961
v 0.263269 -3.194918 0.566961
v -0.391777 -3.194918 0.056778
v 0.263269 -3.194918 0.056778
v 0.000000 -3.194918 0.566961
v 0.000000 -3.194918 0.056778
v -0.187867 -4.915139 0.434192
v 0.076614 -4.915139 0.434192
v -0.187867 -4.915139 0.189547
v 0.076614 -4.915139 0.189547
v 0.000000 -4.915139 0.434192
v 0.000000 -4.915139 0.189547
v -0.187867 -5.286550 0.434192
v 0.076614 -5.286550 0.434192
v -0.187867 -5.286550 0.189547
v 0.076614 -5.286550 0.189547
v 0.000000 -5.286550 0.434192
v 0.000000 -5.286550 0.189547
v -0.590112 -5.146643 0.593550
v -0.590112 -5.146643 0.235838
v -0.590112 -5.286550 0.593550
v -0.590112 -5.286550 0.235838
v -0.772208 -5.146643 0.593550
v -0.772208 -5.146643 0.235838
v -0.772208 -5.286550 0.593550
v -0.772208 -5.286550 0.235838
v -0.914685 -5.146643 0.593550
v -1.014610 -5.146643 0.235838
v -0.914685 -5.286550 0.593550
v -1.014610 -5.286550 0.235838
v -0.542322 1.385826 1.397213
v -0.485345 1.284033 1.631470
v -0.542322 1.385826 1.788049
v -0.592260 1.642882 1.671692
v -0.490354 1.455299 1.384126
v 0.065270 1.824093 1.467356
v 0.437724 1.455299 1.384126
v 0.000000 1.241769 1.293858
v -1.600174 1.397099 1.462525
v -1.559744 1.324868 1.628751
v -1.600174 1.397099 1.739857
v -1.761123 1.579502 1.657292
v -1.860412 1.409554 1.534690
v -1.838265 1.369987 1.625746
v -1.860412 1.409554 1.686608
v -1.879823 1.509472 1.641380
v -2.004741 1.399269 1.475100
v -1.967497 1.332730 1.628227
v -2.004741 1.399269 1.730578
v -2.037385 1.567299 1.654519
v -2.986213 1.412998 1.554641
v -2.969121 1.382462 1.624915
v -2.986213 1.412998 1.671886
v -3.001194 1.490111 1.636981
v -3.079120 1.413027 1.552888
v -3.061616 1.381754 1.624857
v -3.079120 1.413027 1.672961
v -3.094462 1.492000 1.637214
v -3.451545 1.413027 1.471900
v -3.434041 1.381754 1.624857
v -3.451545 1.413027 1.753949
v -3.466888 1.492000 1.637214
v -3.627829 1.410075 1.628031
v 0.201827 1.639725 0.000000
v 0.000000 1.813964 0.269696
v 0.000000 1.962884 0.269696
v 0.190704 3.265090 0.153670
v 0.352374 3.112319 0.283946
v 0.460399 2.883682 0.370993
v 0.498332 2.613987 0.401560
v 0.460399 2.344291 0.370993
v 0.352374 2.115654 0.283946
v 0.269696 3.265090 0.000000
v 0.498332 3.112319 0.000000
v 0.651103 2.883682 0.000000
v 0.704748 2.613987 0.000000
v 0.651103 2.344291 0.000000
v 0.498332 2.115654 0.000000
v -0.269696 3.265090 0.000000
v -0.498332 3.112319 0.000000
v -0.651103 2.883682 0.000000
v -0.704748 2.613987 0.000000
v -0.651103 2.038084 0.000000
v -0.498332 1.903381 0.000000
v -0.190704 3.265090 0.153670
v -0.352374 3.112319 0.283946
v -0.460399 2.883682 0.370993
v -0.498332 2.613987 0.401560
v -0.460399 2.344291 0.370993
v -0.352374 2.115654 0.283946
v -0.190704 1.962884 0.190704
v 0.000000 3.318735 0.000000
v 0.000000 3.265090 0.217323
v 0.000000 3.112319 0.401560
v 0.000000 2.883682 0.524663
v 0.000000 2.613987 0.567892
v 0.000000 2.344291 0.524663
v 0.000000 2.115654 0.401560
v 0.190704 1.962884 0.190704
vn -0.9972 -0.0675 0.0323
vn -0.0000 -0.1849 -0.9828
vn 0.9933 -0.0000 -0.1152
vn -0.0000 -0.0000 -1.0000
vn -0.9986 -0.0000 0.0526
vn -0.4156 0.9034 0.1061
vn 0.9932 -0.0926 -0.0709
vn 0.4005 0.9151 -0.0464
vn -0.3730 0.9276 0.0196
vn -0.0000 0.9678 0.2517
vn 1.0000 -0.0000 -0.0000
vn 0.4010 0.9161 -0.0000
vn 0.4741 -0.8805 -0.0000
vn -0.3730 0.9278 -0.0000
vn -1.0000 -0.0000 -0.0000
vn -0.4434 -0.8963 -0.0000
vn -0.0000 -0.0295 -0.9996
vn -0.0000 -0.0295 0.9996
vn 0.9858 -0.1677 -0.0000
vn -0.9990 -0.0453 -0.0000
vn 0.9511 -0.3088 -0.0000
vn -0.0000 -0.2068 0.9784
vn -0.9511 -0.3088 -0.0000
vn -0.0000 -0.2068 -0.9784
vn -0.0000 0.0423 0.9991
vn -0.0000 0.0423 -0.9991
vn 0.9358 0.3525 -0.0000
vn -0.9979 0.0648 -0.0000
vn -0.0000 -0.0770 0.9970
vn -0.9930 -0.1177 -0.0000
vn -0.0000 -0.0770 -0.9970
vn 0.9942 -0.1079 -0.0000
vn -0.0000 -0.0000 1.0000
vn -0.0000 -1.0000 -0.0000
vn -0.1143 -0.0000 0.9934
vn -0.4988 0.8667 -0.0000
vn 0.3683 -0.0000 -0.9297
vn -0.0000 1.0000 -0.0000
vn -0.9631 -0.0000 -0.2690
vn -0.0334 -0.8434 -0.5362
vn 0.2924 -0.7829 -0.5491
vn 0.3026 0.2529 -0.9190
vn -0.4244 0.4639 -0.7776
vn -0.4208 -0.8385 0.3462
vn 0.4564 -0.8274 0.3272
vn 0.5248 0.7545 -0.3942
vn -0.4331 0.7651 -0.4765
vn -0.1967 -0.0374 0.9798
vn -0.2995 -0.8995 0.3180
vn -0.3834 0.6383 0.6675
vn -0.0340 -0.9196 0.3913
vn -0.0373 0.4061 -0.9131
vn -0.0346 0.7263 0.6865
vn -0.3186 0.3388 -0.8853
vn -0.3027 0.6676 0.6803
vn -0.2610 -0.9070 0.3306
vn -0.2597 -0.8501 -0.4582
vn 0.1272 -0.8980 0.4212
vn 0.1241 -0.8107 -0.5722
vn 0.1292 0.4296 -0.8937
vn 0.1193 0.7354 0.6670
vn -0.0490 0.4040 -0.9135
vn -0.0456 0.7250 0.6873
vn -0.0444 -0.9202 0.3890
vn -0.0437 -0.8448 -0.5333
vn 0.0131 0.7310 0.6822
vn 0.0073 -0.9165 0.4000
vn 0.0061 -0.8374 -0.5466
vn 0.0107 0.4141 -0.9102
vn 0.0772 0.7002 -0.7098
vn 0.0575 0.8468 0.5287
vn 0.0296 -0.9618 0.2721
vn 0.0369 -0.9400 -0.3391
vn -0.4040 0.7322 -0.5484
vn -0.3910 0.8159 0.4260
vn -0.1378 -0.9667 -0.2155
vn -0.1451 -0.9725 0.1822
vn 0.9070 -0.1905 -0.3757
vn -0.3827 -0.0000 -0.9239
vn 0.2820 -0.4548 -0.8448
vn 0.3130 0.1503 -0.9378
vn 0.2084 0.7529 -0.6243
vn 0.2564 -0.6576 -0.7084
vn 0.3130 -0.1503 -0.9378
vn 0.2820 0.4548 -0.8448
vn 0.0797 0.9678 -0.2389
vn 0.5550 -0.7892 -0.2630
vn 0.8758 -0.1742 -0.4502
vn 0.7646 0.5109 -0.3930
vn 0.1941 0.9759 -0.0998
vn 0.7646 -0.5109 -0.3930
vn 0.8758 0.1742 -0.4502
vn 0.5342 0.7995 -0.2746
vn -0.7646 0.5109 -0.3930
vn -0.1941 0.9759 -0.0998
vn -0.5089 -0.5282 -0.6797
vn -0.8758 0.1742 -0.4502
vn -0.5342 0.7995 -0.2746
vn -0.1054 -0.8882 -0.4472
vn -0.8652 -0.1114 -0.4889
vn -0.2820 -0.4548 -0.8448
vn -0.3130 0.1503 -0.9378
vn -0.2084 0.7529 -0.6243
vn -0.2564 -0.6576 -0.7084
vn -0.3130 -0.1503 -0.9378
vn -0.2820 0.4548 -0.8448
vn -0.0797 0.9678 -0.2389
vn -0.5410 -0.2704 -0.7964
vn -0.9178 0.1142 -0.3802
vn 0.5743 0.8131 0.0955
vn 0.5965 -0.3926 -0.7000
vn 0.3827 -0.0000 -0.9239
vn -0.9972 -0.0675 -0.0323
vn -0.0000 -0.1849 0.9828
vn 0.9933 -0.0000 0.1152
vn -0.9986 -0.0000 -0.0526
vn -0.4156 0.9034 -0.1061
vn 0.9932 -0.0926 0.0709
vn 0.4005 0.9151 0.0464
vn -0.3730 0.9276 -0.0196
vn -0.0000 0.9678 -0.2517
vn -0.1143 -0.0000 -0.9934
vn 0.3683 -0.0000 0.9297
vn -0.9631 -0.0000 0.2690
vn -0.0334 -0.8434 0.5362
vn 0.2924 -0.7829 0.5491
vn 0.3026 0.2529 0.9190
vn -0.4244 0.4639 0.7776
vn -0.4208 -0.8385 -0.3462
vn 0.4564 -0.8274 -0.3272
vn 0.5248 0.7545 0.3942
vn -0.4331 0.7651 0.4765
vn -0.1967 -0.0374 -0.9798
vn -0.2995 -0.8995 -0.3180
vn -0.3834 0.6383 -0.6675
vn -0.0340 -0.9196 -0.3913
vn -0.0351 0.3981 0.9167
vn -0.0327 0.7221 -0.6910
vn -0.2139 0.2861 0.9340
vn -0.2073 0.6491 -0.7319
vn -0.1451 -0.9199 -0.3644
vn -0.1436 -0.8528 0.5022
vn 0.2416 -0.8671 -0.4356
vn 0.2344 -0.7739 0.5884
vn 0.2332 0.4382 0.8681
vn 0.2148 0.7321 -0.6465
vn -0.0490 0.4040 0.9135
vn -0.0456 0.7250 -0.6873
vn -0.0444 -0.9202 -0.3890
vn -0.0437 -0.8448 0.5333
vn 0.0131 0.7310 -0.6822
vn 0.0073 -0.9165 -0.4000
vn 0.0061 -0.8374 0.5466
vn 0.0107 0.4141 0.9102
vn 0.0772 0.7002 0.7098
vn 0.0575 0.8468 -0.5287
vn 0.0296 -0.9618 -0.2721
vn 0.0369 -0.9400 0.3391
vn -0.4040 0.7322 0.5484
vn -0.3910 0.8159 -0.4260
vn -0.1378 -0.9667 0.2155
vn -0.1451 -0.9725 -0.1822
vn 0.9070 -0.1905 0.3757
vn -0.3827 -0.0000 0.9239
vn 0.2820 -0.4548 0.8448
vn 0.3130 0.1503 0.9378
vn 0.2084 0.7529 0.6243
vn 0.2564 -0.6576 0.7084
vn 0.3130 -0.1503 0.9378
vn 0.2820 0.4548 0.8448
vn 0.0797 0.9678 0.2389
vn 0.5550 -0.7892 0.2630
vn 0.8758 -0.1742 0.4502
vn 0.7646 0.5109 0.3930
vn 0.1941 0.9759 0.0998
vn 0.7646 -0.5109 0.3930
vn 0.8758 0.1742 0.4502
vn 0.5342 0.7995 0.2746
vn -0.7646 0.5109 0.3930
vn -0.1941 0.9759 0.0998
vn -0.5089 -0.5282 0.6797
vn -0.8758 0.1742 0.4502
vn -0.5342 0.7995 0.2746
vn -0.1054 -0.8882 0.4472
vn -0.8652 -0.1114 0.4889
vn -0.2820 -0.4548 0.8448
vn -0.3130 0.1503 0.9378
vn -0.2084 0.7529 0.6243
vn -0.2564 -0.6576 0.7084
vn -0.3130 -0.1503 0.9378
vn -0.2820 0.4548 0.8448
vn -0.0797 0.9678 0.2389
vn -0.5410 -0.2704 0.7964
vn -0.9178 0.1142 0.3802
vn 0.5743 0.8131 -0.0955
vn 0.5965 -0.3926 0.7000
vn 0.3827 -0.0000 0.9239
vt 0.375000 0.125000
vt 0.625000 0.125000
vt 0.625000 0.250000
vt 0.375000 0.250000
vt 0.375000 0.375000
vt 0.625000 0.375000
vt 0.625000 0.500000
vt 0.375000 0.500000
vt 0.625000 0.625000
vt 0.750000 0.500000
vt 0.815201 0.625000
vt 0.750000 0.589229
vt 0.375000 0.625000
vt 0.875000 0.625000
vt 0.875000 0.500000
vt 0.714469 0.625000
vt 0.000000 0.000000
vt 0.657111 0.407111
vt 0.734286 0.605049
vt 0.784093 0.607933
vt 0.750000 0.250000
vt 0.750000 0.375000
vt 0.750000 0.625000
vt 0.625000 0.625000
vt 0.750000 0.750000
vt 0.750000 0.875000
vt 0.625000 0.875000
vt 0.625000 0.750000
vt 0.750000 0.125000
vt 0.625000 0.125000
vt 0.687500 1.000000
vt 0.500000 0.250000
vt 0.500000 0.125000
vt 0.500000 0.500000
vt 0.500000 0.375000
vt 0.500000 0.750000
vt 0.500000 0.625000
vt 0.562500 1.000000
vt 0.500000 0.875000
vt 1.000000 0.625000
vt 1.000000 0.750000
vt 0.875000 0.750000
vt 0.875000 0.625000
vt 1.000000 0.875000
vt 0.937500 1.000000
vt 0.875000 0.875000
vt 1.000000 0.250000
vt 1.000000 0.375000
vt 0.875000 0.375000
vt 0.875000 0.250000
vt 1.000000 0.500000
vt 1.000000 0.125000
vt 0.875000 0.125000
vt 0.812500 1.000000
s 0
f 129/1/1 7/2/1 2/3/1 1/4/1
f 9/5/2 10/6/2 4/7/2 3/8/2
f 141/9/3 12/7/3 6/7/3 132/9/3
f 17/6/4 15/3/4 5/3/4
f 15/3/5 16/2/5 131/2/5 5/3/5
f 11/10/6 100/11/6 99/12/6
f 1/4/4 9/5/4 23/5/4 21/4/4
f 3/8/7 4/7/7 130/9/7 8/13/7
f 6/7/8 11/10/8 132/9/8
f 12/7/4 17/6/4 6/7/4
f 9/5/4 3/8/4 22/8/4 23/5/4
f 1/4/2 2/3/2 10/6/2 9/5/2
f 131/14/9 11/10/9 5/15/9
f 132/9/10 11/10/10 225/16/10
f 3/8/11 8/13/11 149/13/11 22/8/11
f 4/7/4 10/6/4 17/6/4 12/7/4
f 11/10/12 6/7/12 18/7/12 14/10/12
f 2/3/5 7/2/5 16/2/5 15/3/5
f 10/6/4 2/3/4 15/3/4 17/6/4
f 6/7/13 17/6/13 13/6/13 18/7/13
f 5/15/14 11/10/14 14/10/14 19/15/14
f 130/9/3 4/7/3 12/7/3 141/9/3
f 129/1/15 1/4/15 21/4/15 148/1/15
f 17/6/16 5/3/16 19/3/16 13/6/16
f 21/4/17 23/5/17 28/5/17 24/4/17
f 149/17/18 20/17/18 29/17/18 27/17/18
f 23/5/17 22/8/17 25/8/17 28/5/17
f 22/8/19 149/13/19 27/13/19 25/8/19
f 20/17/18 148/17/18 26/17/18 29/17/18
f 148/1/20 21/4/20 24/4/20 26/1/20
f 25/8/21 27/13/21 33/13/21 31/8/21
f 29/17/22 26/17/22 32/17/22 35/17/22
f 26/1/23 24/4/23 30/4/23 32/1/23
f 24/4/24 28/5/24 34/5/24 30/4/24
f 27/17/22 29/17/22 35/17/22 33/17/22
f 28/5/24 25/8/24 31/8/24 34/5/24
f 33/17/25 35/17/25 41/17/25 39/17/25
f 34/5/26 31/8/26 37/8/26 40/5/26
f 31/8/27 33/13/27 39/13/27 37/8/27
f 35/17/25 32/17/25 38/17/25 41/17/25
f 32/1/28 30/4/28 36/4/28 38/1/28
f 30/4/26 34/5/26 40/5/26 36/4/26
f 41/17/29 38/17/29 44/17/29 47/17/29
f 38/1/30 36/4/30 42/4/30 44/1/30
f 36/4/31 40/5/31 46/5/31 42/4/31
f 39/17/29 41/17/29 47/17/29 45/17/29
f 40/5/31 37/8/31 43/8/31 46/5/31
f 37/8/32 39/13/32 45/13/32 43/8/32
f 45/17/33 47/17/33 53/17/33 51/17/33
f 46/5/4 43/8/4 49/8/4 52/5/4
f 43/8/11 45/13/11 51/13/11 49/8/11
f 47/17/33 44/17/33 50/17/33 53/17/33
f 48/17/34 50/17/34 57/17/34 56/17/34
f 42/4/4 46/5/4 52/5/4 48/4/4
f 57/17/33 55/17/33 59/17/33 61/17/33
f 50/17/35 44/17/35 55/17/35 57/17/35
f 44/1/36 42/4/36 54/4/36 55/1/36
f 42/4/37 48/4/37 56/4/37 54/4/37
f 61/17/33 59/17/33 63/17/33 65/17/33
f 55/1/38 54/4/38 58/4/38 59/1/38
f 54/4/4 56/4/4 60/4/4 58/4/4
f 56/17/34 57/17/34 61/17/34 60/17/34
f 63/1/39 62/4/39 64/4/39 65/1/39
f 59/1/38 58/4/38 62/4/38 63/1/38
f 58/4/4 60/4/4 64/4/4 62/4/4
f 60/17/34 61/17/34 65/17/34 64/17/34
f 68/7/40 67/6/40 75/6/40 76/7/40
f 72/7/41 73/6/41 67/6/41 68/7/41
f 71/10/42 72/7/42 68/7/42 69/10/42
f 70/15/43 71/10/43 66/15/43
f 13/6/44 19/3/44 70/3/44 73/6/44
f 18/7/45 13/6/45 73/6/45 72/7/45
f 14/10/46 18/7/46 72/7/46 71/10/46
f 19/15/47 14/10/47 71/10/47 70/15/47
f 66/3/48 73/6/48 70/3/48
f 73/6/49 66/3/49 67/6/49
f 66/15/50 71/10/50 69/10/50
f 67/6/51 66/3/51 74/3/51 75/6/51
f 69/10/52 68/7/52 76/7/52 77/10/52
f 66/15/53 69/10/53 77/10/53 74/15/53
f 77/10/54 76/7/54 80/7/54 81/10/54
f 74/15/55 77/10/55 81/10/55 78/15/55
f 75/6/56 74/3/56 78/3/56 79/6/56
f 76/7/57 75/6/57 79/6/57 80/7/57
f 79/6/58 78/3/58 82/3/58 83/6/58
f 80/7/59 79/6/59 83/6/59 84/7/59
f 81/10/60 80/7/60 84/7/60 85/10/60
f 78/15/61 81/10/61 85/10/61 82/15/61
f 85/10/62 84/7/62 88/7/62 89/10/62
f 82/15/63 85/10/63 89/10/63 86/15/63
f 83/6/64 82/3/64 86/3/64 87/6/64
f 84/7/65 83/6/65 87/6/65 88/7/65
f 86/15/66 89/10/66 93/10/66 90/15/66
f 87/6/67 86/3/67 90/3/67 91/6/67
f 88/7/68 87/6/68 91/6/68 92/7/68
f 89/10/69 88/7/69 92/7/69 93/10/69
f 93/10/70 92/7/70 96/7/70 97/10/70
f 90/15/71 93/10/71 97/10/71 94/15/71
f 91/6/72 90/3/72 94/3/72 95/6/72
f 92/7/73 91/6/73 95/6/73 96/7/73
f 96/7/74 98/18/74 97/10/74
f 97/10/75 98/18/75 94/3/75
f 98/18/76 96/7/76 95/6/76
f 94/3/77 98/18/77 95/6/77
f 225/16/78 108/19/78 136/16/78
f 99/12/79 116/20/79 101/12/79
f 122/21/80 121/22/80 106/6/80 107/3/80
f 120/10/81 119/23/81 104/24/81 105/7/81
f 118/25/82 117/26/82 102/27/82 103/28/82
f 101/29/83 122/21/83 107/3/83 108/30/83
f 121/22/84 120/10/84 105/7/84 106/6/84
f 119/23/85 118/25/85 103/28/85 104/24/85
f 117/26/86 253/31/86 102/27/86
f 108/30/87 107/3/87 239/32/87 136/33/87
f 106/6/88 105/7/88 237/34/88 238/35/88
f 104/24/89 103/28/89 235/36/89 236/37/89
f 102/27/90 253/38/90 234/39/90
f 107/3/91 106/6/91 238/35/91 239/32/91
f 105/7/92 104/24/92 236/37/92 237/34/92
f 103/28/93 102/27/93 234/39/93 235/36/93
f 242/40/94 241/41/94 111/42/94 112/43/94
f 240/44/95 253/45/95 110/46/95
f 245/47/96 244/48/96 114/49/96 115/50/96
f 243/51/97 242/40/97 112/43/97 113/15/97
f 241/41/98 240/44/98 110/46/98 111/42/98
f 109/52/99 245/47/99 115/50/99 116/53/99
f 244/48/100 243/51/100 113/15/100 114/49/100
f 115/50/101 114/49/101 121/22/101 122/21/101
f 113/15/102 112/43/102 119/23/102 120/10/102
f 111/42/103 110/46/103 117/26/103 118/25/103
f 116/53/104 115/50/104 122/21/104 101/29/104
f 114/49/105 113/15/105 120/10/105 121/22/105
f 112/43/106 111/42/106 118/25/106 119/23/106
f 110/46/107 253/54/107 117/26/107
f 116/20/108 99/12/108 100/11/108
f 100/11/109 109/11/109 116/20/109
f 100/11/10 11/10/10 131/14/10
f 225/16/110 11/10/110 99/12/110
f 108/19/111 225/16/111 99/12/111
f 99/12/112 101/12/112 108/19/112
f 129/1/113 123/4/113 124/3/113 7/2/113
f 133/5/114 125/8/114 126/7/114 134/6/114
f 141/9/115 132/9/115 128/7/115 137/7/115
f 142/6/33 127/3/33 140/3/33
f 140/3/116 127/3/116 131/2/116 16/2/116
f 135/10/117 226/12/117 100/11/117
f 123/4/33 147/4/33 145/5/33 133/5/33
f 125/8/118 8/13/118 130/9/118 126/7/118
f 128/7/119 132/9/119 135/10/119
f 137/7/33 128/7/33 142/6/33
f 133/5/33 145/5/33 144/8/33 125/8/33
f 123/4/114 133/5/114 134/6/114 124/3/114
f 131/14/120 127/15/120 135/10/120
f 132/9/121 225/16/121 135/10/121
f 125/8/11 144/8/11 149/13/11 8/13/11
f 126/7/33 137/7/33 142/6/33 134/6/33
f 135/10/12 139/10/12 143/7/12 128/7/12
f 124/3/116 140/3/116 16/2/116 7/2/116
f 134/6/33 142/6/33 140/3/33 124/3/33
f 128/7/13 143/7/13 138/6/13 142/6/13
f 127/15/14 146/15/14 139/10/14 135/10/14
f 130/9/115 141/9/115 137/7/115 126/7/115
f 129/1/15 148/1/15 147/4/15 123/4/15
f 142/6/16 138/6/16 146/3/16 127/3/16
f 147/4/18 150/4/18 154/5/18 145/5/18
f 149/17/17 153/17/17 155/17/17 20/17/17
f 145/5/18 154/5/18 151/8/18 144/8/18
f 144/8/19 151/8/19 153/13/19 149/13/19
f 20/17/17 155/17/17 152/17/17 148/17/17
f 148/1/20 152/1/20 150/4/20 147/4/20
f 151/8/21 157/8/21 159/13/21 153/13/21
f 155/17/24 161/17/24 158/17/24 152/17/24
f 152/1/23 158/1/23 156/4/23 150/4/23
f 150/4/22 156/4/22 160/5/22 154/5/22
f 153/17/24 159/17/24 161/17/24 155/17/24
f 154/5/22 160/5/22 157/8/22 151/8/22
f 159/17/26 165/17/26 167/17/26 161/17/26
f 160/5/25 166/5/25 163/8/25 157/8/25
f 157/8/27 163/8/27 165/13/27 159/13/27
f 161/17/26 167/17/26 164/17/26 158/17/26
f 158/1/28 164/1/28 162/4/28 156/4/28
f 156/4/25 162/4/25 166/5/25 160/5/25
f 167/17/31 173/17/31 170/17/31 164/17/31
f 164/1/30 170/1/30 168/4/30 162/4/30
f 162/4/29 168/4/29 172/5/29 166/5/29
f 165/17/31 171/17/31 173/17/31 167/17/31
f 166/5/29 172/5/29 169/8/29 163/8/29
f 163/8/32 169/8/32 171/13/32 165/13/32
f 171/17/4 177/17/4 179/17/4 173/17/4
f 172/5/33 178/5/33 175/8/33 169/8/33
f 169/8/11 175/8/11 177/13/11 171/13/11
f 173/17/4 179/17/4 176/17/4 170/17/4
f 174/17/34 182/17/34 183/17/34 176/17/34
f 168/4/33 174/4/33 178/5/33 172/5/33
f 183/17/4 187/17/4 185/17/4 181/17/4
f 176/17/122 183/17/122 181/17/122 170/17/122
f 170/1/36 181/1/36 180/4/36 168/4/36
f 168/4/123 180/4/123 182/4/123 174/4/123
f 187/17/4 191/17/4 189/17/4 185/17/4
f 181/1/38 185/1/38 184/4/38 180/4/38
f 180/4/33 184/4/33 186/4/33 182/4/33
f 182/17/34 186/17/34 187/17/34 183/17/34
f 189/1/124 191/1/124 190/4/124 188/4/124
f 185/1/38 189/1/38 188/4/38 184/4/38
f 184/4/33 188/4/33 190/4/33 186/4/33
f 186/17/34 190/17/34 191/17/34 187/17/34
f 194/7/125 202/7/125 201/6/125 193/6/125
f 198/7/126 194/7/126 193/6/126 199/6/126
f 197/10/127 195/10/127 194/7/127 198/7/127
f 196/15/128 192/15/128 197/10/128
f 138/6/129 199/6/129 196/3/129 146/3/129
f 143/7/130 198/7/130 199/6/130 138/6/130
f 139/10/131 197/10/131 198/7/131 143/7/131
f 146/15/132 196/15/132 197/10/132 139/10/132
f 192/3/133 196/3/133 199/6/133
f 199/6/134 193/6/134 192/3/134
f 192/15/135 195/10/135 197/10/135
f 193/6/136 201/6/136 200/3/136 192/3/136
f 195/10/137 203/10/137 202/7/137 194/7/137
f 192/15/138 200/15/138 203/10/138 195/10/138
f 203/10/139 207/10/139 206/7/139 202/7/139
f 200/15/140 204/15/140 207/10/140 203/10/140
f 201/6/141 205/6/141 204/3/141 200/3/141
f 202/7/142 206/7/142 205/6/142 201/6/142
f 205/6/143 209/6/143 208/3/143 204/3/143
f 206/7/144 210/7/144 209/6/144 205/6/144
f 207/10/145 211/10/145 210/7/145 206/7/145
f 204/15/146 208/15/146 211/10/146 207/10/146
f 211/10/147 215/10/147 214/7/147 210/7/147
f 208/15/148 212/15/148 215/10/148 211/10/148
f 209/6/149 213/6/149 212/3/149 208/3/149
f 210/7/150 214/7/150 213/6/150 209/6/150
f 212/15/151 216/15/151 219/10/151 215/10/151
f 213/6/152 217/6/152 216/3/152 212/3/152
f 214/7/153 218/7/153 217/6/153 213/6/153
f 215/10/154 219/10/154 218/7/154 214/7/154
f 219/10/155 223/10/155 222/7/155 218/7/155
f 216/15/156 220/15/156 223/10/156 219/10/156
f 217/6/157 221/6/157 220/3/157 216/3/157
f 218/7/158 222/7/158 221/6/158 217/6/158
f 222/7/159 223/10/159 224/18/159
f 223/10/160 220/3/160 224/18/160
f 224/18/161 221/6/161 222/7/161
f 220/3/162 221/6/162 224/18/162
f 225/16/163 136/16/163 260/19/163
f 226/12/164 227/12/164 252/20/164
f 259/21/165 233/3/165 232/6/165 258/22/165
f 257/10/166 231/7/166 230/24/166 256/23/166
f 255/25/167 229/28/167 228/27/167 254/26/167
f 227/29/168 260/30/168 233/3/168 259/21/168
f 258/22/169 232/6/169 231/7/169 257/10/169
f 256/23/170 230/24/170 229/28/170 255/25/170
f 254/26/171 228/27/171 253/31/171
f 260/30/172 136/33/172 239/32/172 233/3/172
f 232/6/173 238/35/173 237/34/173 231/7/173
f 230/24/174 236/37/174 235/36/174 229/28/174
f 228/27/175 234/39/175 253/38/175
f 233/3/176 239/32/176 238/35/176 232/6/176
f 231/7/177 237/34/177 236/37/177 230/24/177
f 229/28/178 235/36/178 234/39/178 228/27/178
f 242/40/179 248/43/179 247/42/179 241/41/179
f 240/44/180 246/46/180 253/45/180
f 245/47/181 251/50/181 250/49/181 244/48/181
f 243/51/182 249/15/182 248/43/182 242/40/182
f 241/41/183 247/42/183 246/46/183 240/44/183
f 109/52/184 252/53/184 251/50/184 245/47/184
f 244/48/185 250/49/185 249/15/185 243/51/185
f 251/50/186 259/21/186 258/22/186 250/49/186
f 249/15/187 257/10/187 256/23/187 248/43/187
f 247/42/188 255/25/188 254/26/188 246/46/188
f 252/53/189 227/29/189 259/21/189 251/50/189
f 250/49/190 258/22/190 257/10/190 249/15/190
f 248/43/191 256/23/191 255/25/191 247/42/191
f 246/46/192 254/26/192 253/54/192
f 252/20/193 100/11/193 226/12/193
f 100/11/194 252/20/194 109/11/194
f 100/11/121 131/14/121 135/10/121
f 225/16/195 226/12/195 135/10/195
f 260/19/196 226/12/196 225/16/196
f 226/12/197 260/19/197 227/12/197
